<?xml version="1.0" standalone="no"?>
<!DOCTYPE svg PUBLIC "-//W3C//DTD SVG 20010904//EN"
 "http://www.w3.org/TR/2001/REC-SVG-20010904/DTD/svg10.dtd">
<svg version="1.0" xmlns="http://www.w3.org/2000/svg"
 width="261.000000pt" height="261.000000pt" viewBox="0 0 261.000000 261.000000"
 preserveAspectRatio="xMidYMid meet">
<metadata>
Created by potrace 1.14, written by Peter Selinger 2001-2017
</metadata>
<g transform="translate(0.000000,261.000000) scale(0.100000,-0.100000)"
fill="#000000" stroke="none">
<path d="M1184 2004 c-139 -23 -223 -57 -318 -128 -64 -49 -155 -86 -565 -234
-50 -19 -76 -34 -84 -49 -11 -24 -7 -35 90 -241 23 -52 43 -96 43 -98 0 -2 14
-32 31 -66 41 -85 40 -113 -10 -187 -25 -37 -41 -71 -41 -89 0 -40 59 -204 79
-220 14 -11 20 -9 43 19 l26 31 29 -32 c38 -42 55 -36 117 43 l48 62 -7 -85
c-3 -47 -8 -96 -10 -110 -2 -14 -6 -61 -10 -105 -4 -44 -9 -84 -13 -89 -7 -12
46 -1 92 18 46 19 67 54 72 118 12 163 22 192 52 150 116 -160 180 -200 357
-227 48 -7 182 -8 193 -1 4 2 27 7 52 11 127 19 207 71 287 188 37 53 62 55
64 3 5 -187 20 -219 118 -256 l51 -20 0 23 c0 12 -4 58 -9 102 -6 44 -13 116
-16 159 -4 43 -8 88 -10 100 -4 18 0 17 21 -9 73 -85 92 -105 103 -105 7 0 24
13 39 30 l28 30 27 -30 c29 -30 51 -31 60 -2 3 9 19 55 36 102 17 47 31 94 31
105 0 11 -21 51 -45 89 -25 38 -45 77 -45 86 0 16 26 79 87 210 76 161 118
267 115 287 -2 17 -19 28 -75 48 -40 15 -81 30 -92 35 -11 5 -100 38 -197 74
-160 58 -307 130 -323 156 -3 6 -39 26 -78 45 -127 60 -299 84 -443 59z"/>
</g>
</svg>
