<svg xmlns="http://www.w3.org/2000/svg" viewBox="0 0 136.06 99.76"><defs><style>.cls-1{fill:#fff;}</style></defs><g id="レイヤー_2" data-name="レイヤー 2"><g id="レイヤー_1-2" data-name="レイヤー 1"><path class="cls-1" d="M135.8,28.81a3,3,0,0,0-1.66-4l-28-10.37A51.56,51.56,0,0,1,93.35,7.52h0A34.53,34.53,0,0,0,79.44,1.41L76.28.79a43.56,43.56,0,0,0-16.49,0l-3.17.62A34.65,34.65,0,0,0,42.71,7.52h0a51.67,51.67,0,0,1-12.8,6.93l-28,10.37a3,3,0,0,0-1.66,4l12,26.34a5.52,5.52,0,0,1-.43,5.35L8.14,66a5.37,5.37,0,0,0-.59,4.81l3.94,10.93a1.59,1.59,0,0,0,2.73.45l2.47-3.08L19,82a2.41,2.41,0,0,0,3.79,0l6.05-7.66-2.38,25.4,5-1.65a7.16,7.16,0,0,0,4.88-6.33L37,81.69A1.61,1.61,0,0,1,40,81l1.27,2.18a24,24,0,0,0,13,10.57L60.56,95a36.9,36.9,0,0,0,15,0l6.32-1.3a24,24,0,0,0,13-10.57L96.09,81a1.61,1.61,0,0,1,3,.71l.66,10.09a7.16,7.16,0,0,0,4.88,6.33l5,1.65-2.38-25.4,6,7.66A2.41,2.41,0,0,0,117,82l2.34-2.91,2.46,3.08a1.59,1.59,0,0,0,2.73-.45l3.94-10.93a5.4,5.4,0,0,0-.58-4.81l-3.68-5.51a5.55,5.55,0,0,1-.43-5.35Z"/></g></g></svg>